<svg width="39" height="32" viewBox="0 0 39 32" fill="none" xmlns="http://www.w3.org/2000/svg">
<path d="M13.8257 13.5673C15.7186 13.8059 17.6386 13.627 19.526 13.5131C20.5077 13.4534 21.4894 13.3666 22.4819 13.3503C23.4582 13.3341 24.4507 13.5131 25.4161 13.3449C26.1049 13.2256 26.2025 12.629 25.8392 12.2276C24.8954 11.1971 23.5612 10.3673 22.7856 9.24462C22.1999 8.39852 21.6955 7.48192 20.8548 6.76599C20.4263 6.39718 19.9002 6.09346 19.2657 6.0121C18.6419 5.93617 18.0941 6.13685 17.6223 6.43515C16.6623 7.05345 16.0603 8.02971 15.5125 8.88666C14.8725 9.88461 14.0047 10.8066 13.4677 11.848C13.2671 12.0921 13.1043 12.3524 12.9959 12.6344C12.8115 13.1117 13.2562 13.4968 13.8311 13.5673H13.8257Z" fill="#EAB030"/>
<path d="M9.96673 19.555C9.99927 19.5333 10.0318 19.5062 10.0644 19.4845C10.4928 19.7394 11.084 19.7937 11.6481 19.7774C13.4325 19.7178 15.244 19.7449 17.0284 19.7503C18.9809 19.7557 20.9334 19.7503 22.8859 19.7503C23.9273 19.7503 24.9686 19.7611 26.0046 19.6798C27.0622 19.5984 28.1144 19.4683 29.1774 19.3923C29.7686 19.3489 30.3652 18.8717 29.9476 18.4161C29.6601 18.1069 29.454 17.7598 29.1991 17.4398C29.0039 17.1903 28.7761 16.9517 28.57 16.7022C28.1903 16.2412 27.789 15.6663 27.1327 15.4059C26.5036 15.1564 25.7117 15.1727 25.0229 15.1998C24.3015 15.2324 23.5856 15.3083 22.8697 15.3463C21.8826 15.4005 20.8792 15.3734 19.8867 15.3951C18.7477 15.4222 17.6141 15.4276 16.4806 15.4222C15.5369 15.4168 14.5877 15.4222 13.6494 15.4981C12.9172 15.5578 12.0494 15.5795 11.3986 15.8724C10.6664 16.1978 10.303 16.7944 10.0264 17.3747C9.78775 17.8845 9.62505 18.4974 9.09895 18.8934C8.53489 19.3218 9.37555 19.9564 9.97216 19.5605L9.96673 19.555Z" fill="#EAB030"/>
<path d="M31.1697 22.5949C30.8931 22.237 30.5785 21.8193 30.1772 21.5373C29.6239 21.1468 28.9785 21.3095 28.4036 21.3366C27.4436 21.3746 26.4782 21.2987 25.5182 21.3149C24.504 21.3366 23.4898 21.3854 22.4755 21.4397C20.3983 21.5482 18.3156 21.6783 16.2274 21.6078C14.2586 21.5427 12.2736 21.1956 10.3102 21.456C9.437 21.5753 8.73733 21.8899 8.26005 22.4539C8.10819 22.6329 7.97802 22.8227 7.85327 23.018C7.35429 23.4031 7.01803 23.902 6.9638 24.4661C6.95295 24.5963 6.99634 24.721 7.08312 24.8295C6.99092 25.2959 7.40312 25.6322 8.01599 25.6919C8.08108 25.6973 8.15158 25.7027 8.21667 25.7081C8.25463 25.719 8.2926 25.7298 8.33599 25.7352C8.55294 25.7732 8.7753 25.8003 8.99225 25.822C9.13869 25.9034 9.30683 25.9522 9.49124 25.9576C9.75157 25.9685 9.99564 25.9413 10.2343 25.898C11.6227 25.9359 13.0112 25.8329 14.4159 25.8383C14.7197 25.9685 15.0993 26.0064 15.4356 25.8817C15.4519 25.8763 15.4681 25.8708 15.4844 25.8654C17.1929 25.9196 18.8959 26.0607 20.5989 25.9793C21.5969 25.9305 22.5894 25.8274 23.582 25.7407C24.6125 25.6539 25.6321 25.6376 26.668 25.6268C27.5196 25.6159 28.3657 25.5671 29.2117 25.6159C29.906 25.6593 30.687 25.6973 31.3107 25.4207C32.7046 24.8024 31.7717 23.3597 31.1697 22.5841V22.5949Z" fill="#EAB030"/>
</svg>
