<svg width="20" height="20" viewBox="0 0 20 20" fill="none" xmlns="http://www.w3.org/2000/svg">
<path d="M8.46379 0.560065C9.35181 -0.186688 10.6482 -0.186688 11.5363 0.560065L18.6971 6.58168C19.2364 7.03519 19.5478 7.70386 19.5478 8.40856V18.4087C19.5478 19.2876 18.8353 20 17.9565 20H13.5804C12.7016 20 11.9891 19.2876 11.9891 18.4087V12.8392C11.9891 12.8392 12.1217 12.0435 10 12.0435C7.8783 12.0435 8.0109 12.8392 8.0109 12.8392V18.4087C8.0109 19.2876 7.29848 20 6.41961 20H2.04356C1.16472 20 0.452271 19.2876 0.452271 18.4087V8.40856C0.452271 7.70386 0.763646 7.03519 1.30297 6.58168L8.46379 0.560065Z" fill="#EAB030"/>
</svg>
